# xmcd
#
# Track frame offsets: 
#        150
#        15490
#        43225
#        66204
#        81734
#        109270
#        124360
#        145732
#        178680
#        201680
#        220342
#
# Disc length: 3203 seconds
#
# Revision: 0
# Processed by: cddbd v1.5.2PL0 Copyright (c) Steve Scherf et al.
# Submitted via: ExactAudioCopy v1.0b4
#
DISCID=b20c810b
DTITLE=Jeff Chaz - This Silence Is Killing Me
DYEAR=2016
DGENRE=Blues
TTITLE0=Savin' Everything For You
TTITLE1=This Silence Is Killing Me
TTITLE2=I Ain't Nothin' Nice
TTITLE3=I'm Not All There
TTITLE4=The Blues Is My Drug
TTITLE5=Merry Christmas To You
TTITLE6=Oncoming Train
TTITLE7=Fried Chicken Store
TTITLE8=Self Inflicted Wound
TTITLE9=The Backwash Blues
TTITLE10=Creole Mustard Swing
EXTD=
EXTT0=
EXTT1=
EXTT2=
EXTT3=
EXTT4=
EXTT5=
EXTT6=
EXTT7=
EXTT8=
EXTT9=
EXTT10=
PLAYORDER=
